<svg xmlns="http://www.w3.org/2000/svg" width="50" height="50" viewBox="0 0 50 50">
  <g id="Group_103031" data-name="Group 103031" transform="translate(-411 -16108)">
    <rect id="Rectangle_17020" data-name="Rectangle 17020" width="50" height="50" transform="translate(411 16108)" fill="none"/>
    <g id="inb" transform="translate(-6682.3 16121)">
      <path id="Path_6104" data-name="Path 6104" d="M0,7.013H42.741V0H0Z" transform="translate(7096.3)" fill="#a1d9f7"/>
      <path id="Path_6105" data-name="Path 6105" d="M0,25.169H42.741V24H0Z" transform="translate(7096.3 -14.649)" fill="#64b33a"/>
      <path id="Path_6106" data-name="Path 6106" d="M0,32.338H42.741V30H0Z" transform="translate(7096.3 -18.312)" fill="#004f9e"/>
      <g id="Group_103030" data-name="Group 103030" transform="translate(7096.3 17.533)">
        <path id="Path_6107" data-name="Path 6107" d="M7111.144,45v4.208L7106.585,45h-.935v5.844h1.13V46.636l4.558,4.208h.935V45Zm23.338,0v5.844h5.338V49.792h-4.247V45Zm-14.688,0-2.338,4.442L7115.118,45h-1.286l3.156,5.844h.857l3.2-5.844Zm8.728,0a3.6,3.6,0,0,0-2.377.623,2.122,2.122,0,0,0-.623,1.675v1.247a2.267,2.267,0,0,0,.623,1.675,3.471,3.471,0,0,0,2.377.623h3.74v-3.39h-3.507v1.052h2.416v1.286h-2.922a1.7,1.7,0,0,1-1.285-.39,1.283,1.283,0,0,1-.312-.974V47.377a1.282,1.282,0,0,1,.312-.974,1.755,1.755,0,0,1,1.285-.39h4.052V45Zm-31.091,1.052h3a1.7,1.7,0,0,1,1.286.39,1.324,1.324,0,0,1,.312,1.013v1.052a1.324,1.324,0,0,1-.312,1.013,1.815,1.815,0,0,1-1.286.39h-3V46.052Zm5.649,1.247a2.262,2.262,0,0,0-.625-1.675,3.466,3.466,0,0,0-2.376-.623H7096.3v5.844h3.817a3.6,3.6,0,0,0,2.377-.623,2.12,2.12,0,0,0,.623-1.675C7103.08,48.545,7103.08,47.3,7103.08,47.3Zm18.934,1.364h1.326V47.338h-1.326Z" transform="translate(-7096.3 -45)" fill="#18174a"/>
      </g>
    </g>
  </g>
</svg>
